<?xml version="1.0" standalone="no"?>
<!DOCTYPE svg PUBLIC "-//W3C//DTD SVG 20010904//EN"
 "http://www.w3.org/TR/2001/REC-SVG-20010904/DTD/svg10.dtd">
<svg version="1.0" xmlns="http://www.w3.org/2000/svg"
 width="1024.000000pt" height="572.000000pt" viewBox="0 0 1024.000000 572.000000"
 preserveAspectRatio="xMidYMid meet">
<metadata>
Created by potrace 1.16, written by Peter Selinger 2001-2019
</metadata>
<g transform="translate(0.000000,572.000000) scale(0.100000,-0.100000)"
fill="#000000" stroke="none">
<path d="M2375 4033 c-123 -15 -225 -54 -311 -119 -132 -99 -184 -213 -184
-404 l0 -65 36 59 c52 88 115 165 182 228 110 102 132 109 53 18 -95 -110
-164 -213 -211 -314 -39 -82 -80 -214 -80 -254 0 -35 -15 -26 -40 26 -35 71
-100 151 -192 237 -70 66 -76 73 -38 50 68 -42 146 -108 193 -164 48 -58 55
-50 32 40 -53 205 -177 302 -402 316 l-93 6 0 -34 c0 -49 26 -151 52 -206 30
-64 115 -148 182 -179 30 -14 81 -29 114 -35 83 -15 124 -50 145 -126 16 -60
40 -240 35 -263 -2 -9 9 -15 29 -17 31 -3 31 -2 38 50 13 109 17 127 38 158
25 36 30 39 107 64 30 9 67 26 83 37 35 25 66 85 74 144 l6 47 -55 -5 c-65 -5
-144 -42 -172 -81 -11 -15 -35 -71 -53 -125 l-33 -97 4 100 c6 116 34 221 71
257 15 15 56 34 102 48 117 34 183 71 243 137 90 97 140 240 140 394 l0 79
-32 -1 c-18 -1 -46 -4 -63 -6z"/>
<path d="M9262 3355 c-57 -25 -73 -100 -33 -154 14 -18 31 -25 69 -29 47 -4
54 -2 82 26 51 52 39 131 -25 158 -42 17 -51 17 -93 -1z"/>
<path d="M3373 3330 c-57 -13 -117 -63 -139 -115 -7 -18 -16 -62 -20 -99 l-7
-66 -53 0 -54 0 0 -65 0 -65 55 0 55 0 0 -280 0 -280 80 0 80 0 2 278 3 277
93 3 92 3 0 64 0 65 -90 0 -90 0 0 50 c0 67 30 100 90 100 23 0 50 -5 60 -10
17 -9 22 -5 35 26 8 21 16 51 18 68 2 29 -1 32 -43 43 -51 13 -120 15 -167 3z"/>
<path d="M3660 2845 l0 -486 83 3 82 3 0 480 0 480 -82 3 -83 3 0 -486z"/>
<path d="M4177 3048 c-75 -26 -157 -100 -194 -176 -24 -50 -28 -69 -28 -152 0
-128 24 -189 106 -264 83 -78 145 -99 274 -94 87 3 108 7 158 32 118 60 178
156 185 296 9 184 -79 317 -242 365 -70 21 -188 18 -259 -7z m229 -139 c107
-51 144 -201 78 -316 -32 -55 -80 -84 -152 -90 -115 -9 -202 70 -210 191 -2
35 1 81 8 101 15 46 65 104 105 121 46 20 122 17 171 -7z"/>
<path d="M5065 3051 c-22 -10 -55 -30 -72 -45 l-33 -28 0 41 0 41 -80 0 -80 0
0 -350 0 -350 80 0 80 0 0 180 c0 200 10 267 47 311 35 41 58 52 128 58 l60 6
3 78 4 77 -49 0 c-26 0 -66 -9 -88 -19z"/>
<path d="M5471 3050 c-57 -21 -68 -27 -120 -74 -48 -44 -78 -95 -95 -164 -47
-179 29 -344 193 -421 51 -24 67 -26 176 -26 115 0 123 1 186 32 36 18 74 42
84 53 19 21 18 21 -33 72 l-51 52 -23 -21 c-83 -75 -237 -76 -313 -3 -36 35
-67 89 -59 102 3 4 125 8 271 8 l266 0 -5 84 c-3 64 -10 96 -31 138 -36 73
-108 139 -180 167 -75 28 -190 28 -266 1z m200 -125 c24 -9 52 -23 62 -33 20
-18 56 -87 57 -109 0 -10 -45 -13 -191 -13 l-191 0 6 25 c13 52 47 94 99 119
59 30 97 32 158 11z"/>
<path d="M6180 3049 c-130 -46 -198 -189 -136 -285 41 -61 96 -85 288 -124 94
-19 135 -71 91 -115 -52 -52 -204 -46 -320 13 l-42 22 -27 -58 c-16 -31 -30
-60 -31 -63 -5 -8 99 -54 152 -68 50 -14 228 -14 275 -1 122 34 198 146 170
251 -24 87 -103 136 -262 164 -111 19 -151 42 -146 83 8 68 130 92 256 50 l73
-25 30 58 29 58 -29 16 c-92 47 -272 59 -371 24z"/>
<path d="M6905 3054 c-114 -36 -195 -120 -229 -236 -55 -190 43 -383 226 -444
66 -22 195 -21 260 3 53 19 114 66 148 113 l21 30 -63 40 -63 40 -32 -36
c-102 -110 -286 -71 -333 72 -19 57 -7 157 23 203 70 105 217 121 306 32 l37
-37 57 38 c31 21 57 43 57 48 0 23 -80 95 -130 118 -71 32 -209 40 -285 16z"/>
<path d="M7598 3048 c-225 -78 -299 -388 -137 -572 75 -86 165 -119 312 -114
87 3 110 7 157 31 30 15 68 38 84 52 l30 24 -53 50 -53 51 -33 -26 c-19 -14
-60 -32 -91 -40 -102 -27 -213 15 -254 96 -11 21 -20 44 -20 50 0 7 83 10 270
8 l270 -3 0 65 c0 209 -142 351 -348 349 -49 0 -98 -8 -134 -21z m219 -127
c43 -20 86 -74 97 -123 l6 -28 -191 0 -191 0 7 28 c13 53 47 94 99 118 61 29
117 30 173 5z"/>
<path d="M8633 3060 c-53 -11 -139 -48 -154 -66 -17 -21 28 -118 51 -110 8 3
49 17 90 32 144 50 255 3 271 -116 l4 -25 -145 -5 c-132 -5 -150 -7 -200 -32
-75 -37 -110 -91 -110 -169 0 -138 85 -209 248 -209 80 0 160 27 191 63 21 26
27 21 27 -20 l-1 -36 78 -3 77 -2 0 223 c0 252 -8 305 -54 373 -49 71 -122
104 -240 108 -50 2 -110 -1 -133 -6z m267 -430 c0 -44 -34 -105 -72 -128 -66
-40 -164 -36 -209 9 -37 37 -17 118 35 139 11 5 72 9 134 9 l112 1 0 -30z"/>
<path d="M9229 3033 c-1 -16 -1 -172 -1 -348 l-1 -320 79 0 79 0 3 348 2 347
-80 0 -80 0 -1 -27z"/>
<path d="M2415 2834 c-154 -86 -265 -155 -265 -162 0 -4 13 -13 30 -20 28 -13
36 -11 145 47 169 89 295 165 291 176 -1 6 -25 11 -52 13 -44 2 -60 -4 -149
-54z"/>
<path d="M2275 2859 c-17 -4 -81 -40 -143 -78 -61 -38 -122 -73 -134 -78 -18
-6 -10 -9 37 -13 38 -4 68 -1 81 7 12 6 74 42 138 78 95 55 114 70 105 81 -13
16 -39 17 -84 3z"/>
<path d="M2625 2831 c-33 -15 -103 -54 -155 -86 -52 -31 -128 -73 -168 -92
-54 -25 -72 -38 -70 -51 6 -30 56 -16 212 60 148 72 152 73 234 74 94 2 122
17 122 65 0 21 -7 32 -30 44 -42 22 -77 19 -145 -14z"/>
<path d="M1280 2764 c-8 -4 -44 -18 -80 -32 -36 -14 -97 -47 -136 -73 -39 -26
-105 -62 -147 -80 l-77 -32 0 -228 c0 -126 2 -229 5 -229 3 0 45 20 93 44 148
74 283 128 336 133 38 4 94 -4 211 -30 283 -64 349 -77 376 -77 14 0 87 30
160 66 74 36 179 84 234 106 55 22 120 54 145 72 25 18 108 70 185 116 197
117 209 130 158 170 -48 38 -119 25 -265 -48 -68 -34 -149 -69 -180 -79 -32
-9 -58 -23 -58 -29 0 -23 -57 -70 -101 -83 -71 -21 -188 -29 -292 -19 -64 6
-119 6 -160 -1 -34 -6 -80 -13 -102 -16 l-40 -7 25 21 c44 36 105 44 325 45
180 1 216 4 253 20 49 21 64 55 41 95 -24 43 -60 52 -253 66 -179 13 -184 14
-306 61 -116 44 -133 47 -230 50 -58 2 -112 1 -120 -2z"/>
<path d="M8200 2563 c-65 -34 -81 -119 -32 -174 23 -26 34 -31 76 -31 61 0 98
25 110 75 25 97 -66 174 -154 130z"/>
</g>
</svg>
